<svg id="Layer_1" height="512" viewBox="0 0 512 512" width="512" xmlns="http://www.w3.org/2000/svg" data-name="Layer 1"><path d="m466.149 260.5a160.838 160.838 0 0 1 -70.9 133.388 20.959 20.959 0 0 0 -9.237 17.361v39.223l-39.131-27.649a21.3 21.3 0 0 0 -15.5-3.572 161.093 161.093 0 0 1 -98.652-15.075c99.682-12.716 176.971-98.165 176.971-201.26a201.7 201.7 0 0 0 -14.925-76.3 160.576 160.576 0 0 1 71.374 133.884zm-382.167 104.025v68.945a20.983 20.983 0 0 0 33.108 17.146l53.862-38.008a201.345 201.345 0 0 0 134.267 50.8 211.9 211.9 0 0 0 24.234-1.429l65.447 46.221a21.305 21.305 0 0 0 12.125 3.787 20.17 20.17 0 0 0 9.652-2.358 20.943 20.943 0 0 0 11.338-18.647v-68.944a202.753 202.753 0 0 0 80.136-161.538 200.656 200.656 0 0 0 -43.981-126.171 203.525 203.525 0 0 0 -110.154-70.874 202.25 202.25 0 0 0 -147.249-63.443c-111.89 0-202.918 91.021-202.918 202.904a202.764 202.764 0 0 0 80.133 161.609zm23.877-140.6a21.005 21.005 0 0 1 -.029-42.01h.029a21.005 21.005 0 0 1 0 42.01zm98.93 0a21.005 21.005 0 0 1 -.043-42.01h.043a21.005 21.005 0 0 1 0 42.01zm98.923 0a21.005 21.005 0 0 0 0-42.01h-.036a21.005 21.005 0 1 0 .036 42.01z" fill="#000000" fill-rule="evenodd"/></svg>